<svg width="15" height="19" viewBox="0 0 15 19" fill="none" xmlns="http://www.w3.org/2000/svg">
<path d="M1.8077 19C1.30257 19 0.875 18.825 0.525 18.475C0.175 18.125 0 17.6974 0 17.1923V5.8077C0 5.30257 0.175 4.875 0.525 4.525C0.875 4.175 1.30257 4 1.8077 4H3.75V3.75C3.75 2.7141 4.11603 1.83013 4.84808 1.09808C5.58011 0.366026 6.46407 0 7.49997 0C8.53587 0 9.41984 0.366026 10.1519 1.09808C10.8839 1.83013 11.25 2.7141 11.25 3.75V4H13.1922C13.6974 4 14.125 4.175 14.475 4.525C14.825 4.875 15 5.30257 15 5.8077V17.1923C15 17.6974 14.825 18.125 14.475 18.475C14.125 18.825 13.6974 19 13.1922 19H1.8077ZM1.8077 17.5H13.1922C13.2692 17.5 13.3397 17.4679 13.4038 17.4038C13.4679 17.3397 13.5 17.2692 13.5 17.1923V5.8077C13.5 5.73077 13.4679 5.66024 13.4038 5.59613C13.3397 5.53203 13.2692 5.49998 13.1922 5.49998H11.25V7.75C11.25 7.96282 11.1782 8.14102 11.0346 8.2846C10.891 8.42818 10.7128 8.49998 10.5 8.49998C10.2872 8.49998 10.109 8.42818 9.96538 8.2846C9.82179 8.14102 9.75 7.96282 9.75 7.75V5.49998H5.24995V7.75C5.24995 7.96282 5.17816 8.14102 5.03457 8.2846C4.89099 8.42818 4.71279 8.49998 4.49997 8.49998C4.28716 8.49998 4.10896 8.42818 3.96537 8.2846C3.82179 8.14102 3.75 7.96282 3.75 7.75V5.49998H1.8077C1.73077 5.49998 1.66024 5.53203 1.59612 5.59613C1.53202 5.66024 1.49997 5.73077 1.49997 5.8077V17.1923C1.49997 17.2692 1.53202 17.3397 1.59612 17.4038C1.66024 17.4679 1.73077 17.5 1.8077 17.5ZM5.24995 4H9.75V3.75C9.75 3.12307 9.53172 2.59133 9.09517 2.1548C8.65864 1.71825 8.12691 1.49998 7.49997 1.49998C6.87304 1.49998 6.34131 1.71825 5.90477 2.1548C5.46822 2.59133 5.24995 3.12307 5.24995 3.75V4Z" fill="#6C7680"/>
</svg>
